# File created by Blade
# Date/Time:  Thu Sep 25 17:14:50 2014
# Frame Rate: 120.000 fps
#------------------------------------------------------
:FULLY-SPECIFIED
:DEGREES
940
root -13.033121 32.771825 8.566936 370.072694 0.550550 358.568773
Spine -8.148542 4.744674 3.368939
Head -14.844771 -3.612656 9.268047
LeftShoulder -12.681620 23.759585 20.690379
LeftArm 19.896800 -15.274172 -34.408026
LeftForeArm 4.711461 -0.000000 12.639128
LeftHand -31.622746 -0.000000 6.106807
LeftHandThumb1 -26.253704 0.000000 33.147579
RightShoulder -19.508037 11.549318 -33.581880
RightArm -9.291819 0.733835 33.710376
RightForeArm -26.887630 -0.000000 16.735490
RightHand -15.107348 -0.000000 -0.635981
RightHandThumb1 -24.326973 -0.000000 -32.862282
LeftUpLeg 2.509444 8.815692 1.115441
LeftLeg -2.252905 -0.000000 0.000000
LeftFoot -10.602600 7.610182 -25.291322
LeftToeBase 1.054023 -0.000000 -0.000000
RightUpLeg 0.512444 -6.508915 3.623265
RightLeg -2.555790 -0.000000 0.000000
RightFoot -6.204444 4.311164 -6.554208
RightToeBase -3.190993 -0.000000 0.000000
941
root -13.014832 32.751469 8.553390 370.111343 0.590127 358.559589
Spine -8.174847 4.653396 3.383086
Head -14.758242 -3.503671 9.206063
LeftShoulder -12.543364 24.102275 20.112847
LeftArm 20.325850 -14.821867 -35.425704
LeftForeArm 4.465703 -0.000000 12.738839
LeftHand -31.432062 0.000000 5.968004
LeftHandThumb1 -26.253704 0.000000 33.147579
RightShoulder -19.568267 11.419039 -33.079375
RightArm -9.292897 -0.151263 34.718311
RightForeArm -26.658581 0.000000 16.739926
RightHand -14.962904 -0.000000 -0.578062
RightHandThumb1 -24.326973 -0.000000 -32.862282
LeftUpLeg 2.397931 9.096890 1.049819
LeftLeg -2.165529 -0.000000 0.000000
LeftFoot -10.841872 7.471610 -25.132875
LeftToeBase 1.300932 -0.000000 -0.000000
RightUpLeg 0.489668 -6.321134 3.603398
RightLeg -2.606746 -0.000000 0.000000
RightFoot -6.370203 4.096725 -6.530138
RightToeBase -3.093977 -0.000000 0.000000
942
root -12.995337 32.733421 8.537868 370.188610 0.659177 358.558817
Spine -8.251364 4.462734 3.437373
Head -14.675875 -3.336917 9.006775
LeftShoulder -12.528260 24.174455 19.462921
LeftArm 20.685519 -14.060781 -36.400995
LeftForeArm 4.386285 -0.000000 12.772128
LeftHand -31.158372 -0.000000 5.428326
LeftHandThumb1 -26.253704 0.000000 33.147579
RightShoulder -19.489035 10.974774 -32.433940
RightArm -9.170956 -0.523632 35.718589
RightForeArm -26.424380 -0.000000 16.791456
RightHand -14.614755 -0.000000 -0.276289
RightHandThumb1 -24.326973 -0.000000 -32.862282
LeftUpLeg 2.244948 9.273307 0.971841
LeftLeg -2.088089 -0.000000 0.000000
LeftFoot -11.087526 7.400822 -24.949775
LeftToeBase 1.595119 -0.000000 -0.000000
RightUpLeg 0.451376 -6.049996 3.572445
RightLeg -2.691987 -0.000000 0.000000
RightFoot -6.482472 3.712979 -6.568196
RightToeBase -3.075801 -0.000000 0.000000
943
root -12.975611 32.712767 8.533476 370.201269 0.701751 358.516364
Spine -8.258488 4.244227 3.590118
Head -14.613042 -3.094003 8.686184
LeftShoulder -12.668305 24.292189 18.674009
LeftArm 21.122243 -13.290202 -37.401033
LeftForeArm 4.455600 -0.000000 12.902269
LeftHand -31.125613 -0.000000 4.664950
LeftHandThumb1 -26.253704 0.000000 33.147579
RightShoulder -19.397223 10.747787 -31.850277
RightArm -9.098345 -0.970130 36.707554
RightForeArm -26.425595 -0.000000 16.719259
RightHand -14.099543 -0.000000 0.251996
RightHandThumb1 -24.326973 -0.000000 -32.862282
LeftUpLeg 2.225313 9.488089 0.953508
LeftLeg -2.091144 -0.000000 0.000000
LeftFoot -11.283333 7.284000 -24.743631
LeftToeBase 1.739228 -0.000000 -0.000000
RightUpLeg 0.513691 -5.821888 3.580984
RightLeg -2.857419 -0.000000 0.000000
RightFoot -6.557434 3.603200 -6.388359
RightToeBase -2.947068 -0.000000 0.000000
944
root -12.959464 32.692505 8.528528 370.211316 0.740527 358.466557
Spine -8.279449 4.062421 3.693042
Head -14.511775 -2.836108 8.565480
LeftShoulder -12.767649 24.444170 17.914705
LeftArm 21.544907 -12.504219 -38.389264
LeftForeArm 4.996957 -0.000000 13.058819
LeftHand -31.061343 -0.000000 3.797586
LeftHandThumb1 -26.253704 0.000000 33.147579
RightShoulder -19.315167 10.534756 -31.272753
RightArm -9.118165 -1.252323 37.805462
RightForeArm -26.069925 -0.000000 16.784982
RightHand -13.922557 -0.000000 0.675781
RightHandThumb1 -24.326973 -0.000000 -32.862282
LeftUpLeg 2.238205 9.616370 0.954208
LeftLeg -2.154961 -0.000000 0.000000
LeftFoot -11.456582 7.222135 -24.635478
LeftToeBase 1.774083 -0.000000 -0.000000
RightUpLeg 0.557805 -5.590686 3.596546
RightLeg -2.962464 -0.000000 0.000000
RightFoot -6.639490 3.394373 -6.354792
RightToeBase -2.894256 -0.000000 0.000000
